<?xml version="1.0" encoding="UTF-8"?>
<mxfile host="app.diagrams.net" agent="Mozilla/5.0 (Windows NT 10.0; Win64; x64) AppleWebKit/537.36 (KHTML, like Gecko) Chrome/140.0.0.0 Safari/537.36" version="28.2.5">
  <diagram name="Page-1" id="0NI845REnowD4Wna18q7">
    <mxGraphModel dx="1389" dy="703" grid="1" gridSize="10" guides="1" tooltips="1" connect="1" arrows="1" fold="1" page="1" pageScale="1" pageWidth="850" pageHeight="1100" background="light-dark(#FFFFFF,#FFFFFF)" math="0" shadow="0">
      <root>
        <mxCell id="0" />
        <mxCell id="1" parent="0" />
        <mxCell id="ptYE-NCWXUwTlRA7IUPt-57" value="&lt;font style=&quot;color: light-dark(rgb(0, 0, 0), rgb(0, 0, 0));&quot;&gt;Log in&lt;/font&gt;" style="rounded=1;whiteSpace=wrap;html=1;fontSize=12;glass=0;strokeWidth=1;shadow=0;fillColor=light-dark(#FCD34D,#FCD34D);strokeColor=light-dark(#000000,#000000);gradientColor=light-dark(#F59E0B,#F59E0B);gradientDirection=east;" vertex="1" parent="1">
          <mxGeometry x="350" y="200" width="120" height="40" as="geometry" />
        </mxCell>
        <mxCell id="ptYE-NCWXUwTlRA7IUPt-59" value="&lt;font style=&quot;color: light-dark(rgb(0, 0, 0), rgb(0, 0, 0));&quot;&gt;Check&lt;/font&gt;" style="rhombus;whiteSpace=wrap;html=1;shadow=0;fontFamily=Helvetica;fontSize=12;align=center;strokeWidth=1;spacing=6;spacingTop=-4;fillColor=light-dark(#FCD34D,#FCD34D);strokeColor=light-dark(#000000,#000000);gradientColor=light-dark(#F59E0B,#F59E0B);gradientDirection=east;" vertex="1" parent="1">
          <mxGeometry x="370" y="370" width="80" height="70" as="geometry" />
        </mxCell>
        <mxCell id="ptYE-NCWXUwTlRA7IUPt-60" value="&lt;font style=&quot;color: light-dark(rgb(0, 0, 0), rgb(0, 0, 0));&quot;&gt;Log out&lt;/font&gt;" style="rounded=1;whiteSpace=wrap;html=1;fontSize=12;glass=0;strokeWidth=1;shadow=0;strokeColor=light-dark(#000000,#000000);fillColor=light-dark(#FCD34D,#FCD34D);gradientColor=light-dark(#F59E0B,#F59E0B);gradientDirection=east;" vertex="1" parent="1">
          <mxGeometry x="350" y="863" width="120" height="40" as="geometry" />
        </mxCell>
        <mxCell id="ptYE-NCWXUwTlRA7IUPt-61" value="" style="ellipse;html=1;shape=endState;fillColor=light-dark(#FCD34D,#FCD34D);strokeColor=light-dark(#000000,#000000);gradientColor=light-dark(#F59E0B,#F59E0B);gradientDirection=east;" vertex="1" parent="1">
          <mxGeometry x="395" y="140" width="30" height="30" as="geometry" />
        </mxCell>
        <mxCell id="ptYE-NCWXUwTlRA7IUPt-62" value="" style="endArrow=none;html=1;rounded=0;strokeColor=light-dark(#000000,#000000);entryX=0.5;entryY=1;entryDx=0;entryDy=0;exitX=0.5;exitY=0;exitDx=0;exitDy=0;" edge="1" parent="1" source="ptYE-NCWXUwTlRA7IUPt-57" target="ptYE-NCWXUwTlRA7IUPt-61">
          <mxGeometry width="50" height="50" relative="1" as="geometry">
            <mxPoint x="385" y="200" as="sourcePoint" />
            <mxPoint x="435" y="150" as="targetPoint" />
          </mxGeometry>
        </mxCell>
        <mxCell id="ptYE-NCWXUwTlRA7IUPt-63" value="" style="ellipse;html=1;shape=endState;fillColor=light-dark(#FCD34D,#FCD34D);strokeColor=light-dark(#000000,#000000);gradientColor=light-dark(#F59E0B,#F59E0B);gradientDirection=east;" vertex="1" parent="1">
          <mxGeometry x="395" y="933" width="30" height="30" as="geometry" />
        </mxCell>
        <mxCell id="ptYE-NCWXUwTlRA7IUPt-65" value="&lt;font style=&quot;color: light-dark(rgb(0, 0, 0), rgb(0, 0, 0));&quot;&gt;Authentication&lt;/font&gt;" style="rounded=1;whiteSpace=wrap;html=1;fontSize=12;glass=0;strokeWidth=1;shadow=0;fillColor=light-dark(#FCD34D,#FCD34D);strokeColor=light-dark(#000000,#000000);gradientColor=light-dark(#F59E0B,#F59E0B);gradientDirection=east;" vertex="1" parent="1">
          <mxGeometry x="350" y="280" width="120" height="40" as="geometry" />
        </mxCell>
        <mxCell id="ptYE-NCWXUwTlRA7IUPt-66" value="" style="html=1;points=[[0,0,0,0,5],[0,1,0,0,-5],[1,0,0,0,5],[1,1,0,0,-5]];perimeter=orthogonalPerimeter;outlineConnect=0;targetShapes=umlLifeline;portConstraint=eastwest;newEdgeStyle={&quot;curved&quot;:0,&quot;rounded&quot;:0};rotation=-90;strokeColor=light-dark(#000000,#000000);fillColor=light-dark(#FCD34D,#FCD34D);gradientColor=light-dark(#F59E0B,#F59E0B);" vertex="1" parent="1">
          <mxGeometry x="405" y="210" width="10" height="576" as="geometry" />
        </mxCell>
        <mxCell id="ptYE-NCWXUwTlRA7IUPt-67" value="&lt;font style=&quot;color: light-dark(rgb(0, 0, 0), rgb(0, 0, 0));&quot;&gt;Manage products&lt;/font&gt;" style="rounded=1;whiteSpace=wrap;html=1;fontSize=12;glass=0;strokeWidth=1;shadow=0;fillColor=light-dark(#FCD34D,#FCD34D);strokeColor=light-dark(#000000,#000000);gradientColor=light-dark(#F59E0B,#F59E0B);gradientDirection=east;" vertex="1" parent="1">
          <mxGeometry x="190" y="587" width="120" height="40" as="geometry" />
        </mxCell>
        <mxCell id="ptYE-NCWXUwTlRA7IUPt-70" value="&lt;font style=&quot;color: light-dark(rgb(0, 0, 0), rgb(0, 0, 0));&quot;&gt;Edit products&lt;/font&gt;" style="rounded=1;whiteSpace=wrap;html=1;fontSize=12;glass=0;strokeWidth=1;shadow=0;strokeColor=light-dark(#000000,#000000);fillColor=light-dark(#FCD34D,#FCD34D);gradientColor=light-dark(#F59E0B,#F59E0B);gradientDirection=east;" vertex="1" parent="1">
          <mxGeometry x="145" y="680" width="95" height="40" as="geometry" />
        </mxCell>
        <mxCell id="ptYE-NCWXUwTlRA7IUPt-71" value="" style="html=1;points=[[0,0,0,0,5],[0,1,0,0,-5],[1,0,0,0,5],[1,1,0,0,-5]];perimeter=orthogonalPerimeter;outlineConnect=0;targetShapes=umlLifeline;portConstraint=eastwest;newEdgeStyle={&quot;curved&quot;:0,&quot;rounded&quot;:0};rotation=-90;strokeColor=light-dark(#000000,#000000);fillColor=light-dark(#FCD34D,#FCD34D);gradientColor=light-dark(#F59E0B,#F59E0B);" vertex="1" parent="1">
          <mxGeometry x="405" y="520" width="10" height="581" as="geometry" />
        </mxCell>
        <mxCell id="ptYE-NCWXUwTlRA7IUPt-73" value="&lt;font style=&quot;color: light-dark(rgb(0, 0, 0), rgb(0, 0, 0));&quot;&gt;Manage Custom Orders&lt;/font&gt;" style="rounded=1;whiteSpace=wrap;html=1;fontSize=12;glass=0;strokeWidth=1;shadow=0;fillColor=light-dark(#FCD34D,#FCD34D);strokeColor=light-dark(#000000,#000000);gradientColor=light-dark(#F59E0B,#F59E0B);gradientDirection=east;" vertex="1" parent="1">
          <mxGeometry x="510" y="587" width="120" height="40" as="geometry" />
        </mxCell>
        <mxCell id="ptYE-NCWXUwTlRA7IUPt-77" value="" style="endArrow=none;html=1;rounded=0;strokeColor=light-dark(#000000,#000000);entryX=0.5;entryY=1;entryDx=0;entryDy=0;exitX=0.5;exitY=0;exitDx=0;exitDy=0;" edge="1" parent="1">
          <mxGeometry width="50" height="50" relative="1" as="geometry">
            <mxPoint x="409.63" y="933" as="sourcePoint" />
            <mxPoint x="409.63" y="903" as="targetPoint" />
          </mxGeometry>
        </mxCell>
        <mxCell id="ptYE-NCWXUwTlRA7IUPt-80" value="&lt;font style=&quot;color: light-dark(rgb(0, 0, 0), rgb(0, 0, 0));&quot;&gt;Add/remove products&lt;/font&gt;" style="rounded=1;whiteSpace=wrap;html=1;fontSize=12;glass=0;strokeWidth=1;shadow=0;strokeColor=light-dark(#000000,#000000);fillColor=light-dark(#FCD34D,#FCD34D);gradientColor=light-dark(#F59E0B,#F59E0B);gradientDirection=east;" vertex="1" parent="1">
          <mxGeometry x="260" y="680" width="95" height="40" as="geometry" />
        </mxCell>
        <mxCell id="ptYE-NCWXUwTlRA7IUPt-82" value="&lt;font style=&quot;color: light-dark(rgb(0, 0, 0), rgb(0, 0, 0));&quot;&gt;Message Customers Via Chat&lt;/font&gt;" style="rounded=1;whiteSpace=wrap;html=1;fontSize=12;glass=0;strokeWidth=1;shadow=0;fillColor=light-dark(#FCD34D,#FCD34D);strokeColor=light-dark(#000000,#000000);gradientColor=light-dark(#F59E0B,#F59E0B);gradientDirection=east;" vertex="1" parent="1">
          <mxGeometry x="510" y="687" width="120" height="40" as="geometry" />
        </mxCell>
        <mxCell id="ptYE-NCWXUwTlRA7IUPt-84" value="&lt;font style=&quot;color: light-dark(rgb(0, 0, 0), rgb(0, 0, 0));&quot;&gt;Manage blog posts&lt;/font&gt;" style="rounded=1;whiteSpace=wrap;html=1;fontSize=12;glass=0;strokeWidth=1;shadow=0;fillColor=light-dark(#FCD34D,#FCD34D);strokeColor=light-dark(#000000,#000000);gradientColor=light-dark(#F59E0B,#F59E0B);gradientDirection=east;" vertex="1" parent="1">
          <mxGeometry x="350" y="587" width="120" height="40" as="geometry" />
        </mxCell>
        <mxCell id="ptYE-NCWXUwTlRA7IUPt-88" value="" style="endArrow=classic;html=1;rounded=0;strokeColor=light-dark(#000000,#000000);exitX=1;exitY=0.5;exitDx=0;exitDy=0;" edge="1" parent="1" source="ptYE-NCWXUwTlRA7IUPt-59">
          <mxGeometry relative="1" as="geometry">
            <mxPoint x="450" y="402" as="sourcePoint" />
            <mxPoint x="470" y="297" as="targetPoint" />
            <Array as="points">
              <mxPoint x="580" y="405" />
              <mxPoint x="580" y="297" />
            </Array>
          </mxGeometry>
        </mxCell>
        <mxCell id="ptYE-NCWXUwTlRA7IUPt-89" value="Invalid" style="edgeLabel;resizable=0;html=1;;align=center;verticalAlign=middle;fontColor=light-dark(#000000,#000000);labelBackgroundColor=light-dark(#FFFFFF,#FFFFFF);" connectable="0" vertex="1" parent="ptYE-NCWXUwTlRA7IUPt-88">
          <mxGeometry relative="1" as="geometry" />
        </mxCell>
        <mxCell id="ptYE-NCWXUwTlRA7IUPt-90" value="" style="endArrow=classic;html=1;rounded=0;strokeColor=light-dark(#000000,#000000);" edge="1" parent="1" target="ptYE-NCWXUwTlRA7IUPt-66">
          <mxGeometry relative="1" as="geometry">
            <mxPoint x="410" y="440" as="sourcePoint" />
            <mxPoint x="409.94" y="490" as="targetPoint" />
          </mxGeometry>
        </mxCell>
        <mxCell id="ptYE-NCWXUwTlRA7IUPt-91" value="Yes" style="edgeLabel;resizable=0;html=1;;align=center;verticalAlign=middle;fontColor=light-dark(#000000,#000000);labelBackgroundColor=light-dark(#FFFFFF,#FFFFFF);" connectable="0" vertex="1" parent="ptYE-NCWXUwTlRA7IUPt-90">
          <mxGeometry relative="1" as="geometry" />
        </mxCell>
        <mxCell id="ptYE-NCWXUwTlRA7IUPt-92" value="" style="endArrow=classic;html=1;rounded=0;strokeColor=light-dark(#000000,#000000);exitX=0.5;exitY=1;exitDx=0;exitDy=0;" edge="1" parent="1">
          <mxGeometry width="50" height="50" relative="1" as="geometry">
            <mxPoint x="409.66" y="240" as="sourcePoint" />
            <mxPoint x="409.66" y="280" as="targetPoint" />
          </mxGeometry>
        </mxCell>
        <mxCell id="ptYE-NCWXUwTlRA7IUPt-93" value="" style="endArrow=classic;html=1;rounded=0;strokeColor=light-dark(#000000,#000000);exitX=0.5;exitY=1;exitDx=0;exitDy=0;" edge="1" parent="1">
          <mxGeometry width="50" height="50" relative="1" as="geometry">
            <mxPoint x="409.66" y="320" as="sourcePoint" />
            <mxPoint x="409.66" y="370" as="targetPoint" />
          </mxGeometry>
        </mxCell>
        <mxCell id="ptYE-NCWXUwTlRA7IUPt-98" value="" style="endArrow=classic;html=1;rounded=0;strokeColor=light-dark(#000000,#000000);entryX=0.5;entryY=0;entryDx=0;entryDy=0;" edge="1" parent="1" source="ptYE-NCWXUwTlRA7IUPt-66" target="ptYE-NCWXUwTlRA7IUPt-67">
          <mxGeometry width="50" height="50" relative="1" as="geometry">
            <mxPoint x="250" y="510" as="sourcePoint" />
            <mxPoint x="249.52" y="550" as="targetPoint" />
          </mxGeometry>
        </mxCell>
        <mxCell id="ptYE-NCWXUwTlRA7IUPt-99" value="" style="endArrow=classic;html=1;rounded=0;strokeColor=light-dark(#000000,#000000);entryX=0.5;entryY=0;entryDx=0;entryDy=0;" edge="1" parent="1" source="ptYE-NCWXUwTlRA7IUPt-66" target="ptYE-NCWXUwTlRA7IUPt-84">
          <mxGeometry width="50" height="50" relative="1" as="geometry">
            <mxPoint x="409.89" y="500" as="sourcePoint" />
            <mxPoint x="409.89" y="550" as="targetPoint" />
          </mxGeometry>
        </mxCell>
        <mxCell id="ptYE-NCWXUwTlRA7IUPt-100" value="" style="endArrow=classic;html=1;rounded=0;strokeColor=light-dark(#000000,#000000);entryX=0.5;entryY=0;entryDx=0;entryDy=0;" edge="1" parent="1" source="ptYE-NCWXUwTlRA7IUPt-66" target="ptYE-NCWXUwTlRA7IUPt-73">
          <mxGeometry width="50" height="50" relative="1" as="geometry">
            <mxPoint x="569.52" y="500" as="sourcePoint" />
            <mxPoint x="569.52" y="550" as="targetPoint" />
          </mxGeometry>
        </mxCell>
        <mxCell id="ptYE-NCWXUwTlRA7IUPt-101" value="" style="endArrow=classic;html=1;rounded=0;strokeColor=light-dark(#000000,#000000);exitX=0.5;exitY=1;exitDx=0;exitDy=0;entryX=0.5;entryY=0;entryDx=0;entryDy=0;" edge="1" parent="1" target="ptYE-NCWXUwTlRA7IUPt-82">
          <mxGeometry width="50" height="50" relative="1" as="geometry">
            <mxPoint x="569.89" y="627" as="sourcePoint" />
            <mxPoint x="569.89" y="677" as="targetPoint" />
          </mxGeometry>
        </mxCell>
        <mxCell id="ptYE-NCWXUwTlRA7IUPt-102" value="" style="endArrow=classic;html=1;rounded=0;strokeColor=light-dark(#000000,#000000);exitX=0.5;exitY=1;exitDx=0;exitDy=0;" edge="1" parent="1" target="ptYE-NCWXUwTlRA7IUPt-71">
          <mxGeometry width="50" height="50" relative="1" as="geometry">
            <mxPoint x="569.52" y="727" as="sourcePoint" />
            <mxPoint x="569.52" y="777" as="targetPoint" />
          </mxGeometry>
        </mxCell>
        <mxCell id="ptYE-NCWXUwTlRA7IUPt-103" value="" style="endArrow=classic;html=1;rounded=0;strokeColor=light-dark(#000000,#000000);exitX=0.5;exitY=1;exitDx=0;exitDy=0;" edge="1" parent="1">
          <mxGeometry width="50" height="50" relative="1" as="geometry">
            <mxPoint x="192.02" y="720" as="sourcePoint" />
            <mxPoint x="192.01999999999998" y="805.5" as="targetPoint" />
          </mxGeometry>
        </mxCell>
        <mxCell id="ptYE-NCWXUwTlRA7IUPt-104" value="" style="endArrow=classic;html=1;rounded=0;strokeColor=light-dark(#000000,#000000);exitX=0.5;exitY=1;exitDx=0;exitDy=0;" edge="1" parent="1">
          <mxGeometry width="50" height="50" relative="1" as="geometry">
            <mxPoint x="307.02" y="720" as="sourcePoint" />
            <mxPoint x="307.02" y="805.5" as="targetPoint" />
          </mxGeometry>
        </mxCell>
        <mxCell id="ptYE-NCWXUwTlRA7IUPt-105" value="" style="endArrow=classic;html=1;rounded=0;strokeColor=light-dark(#000000,#000000);" edge="1" parent="1" source="ptYE-NCWXUwTlRA7IUPt-71">
          <mxGeometry width="50" height="50" relative="1" as="geometry">
            <mxPoint x="409.52" y="813" as="sourcePoint" />
            <mxPoint x="409.52" y="863" as="targetPoint" />
          </mxGeometry>
        </mxCell>
        <mxCell id="ptYE-NCWXUwTlRA7IUPt-106" value="" style="endArrow=classic;html=1;rounded=0;strokeColor=light-dark(#000000,#000000);exitX=0.5;exitY=1;exitDx=0;exitDy=0;" edge="1" parent="1" source="ptYE-NCWXUwTlRA7IUPt-84" target="ptYE-NCWXUwTlRA7IUPt-71">
          <mxGeometry width="50" height="50" relative="1" as="geometry">
            <mxPoint x="410" y="690" as="sourcePoint" />
            <mxPoint x="409.89" y="800" as="targetPoint" />
          </mxGeometry>
        </mxCell>
        <mxCell id="ptYE-NCWXUwTlRA7IUPt-107" value="" style="endArrow=classic;html=1;rounded=0;strokeColor=light-dark(#000000,#000000);exitX=0.75;exitY=1;exitDx=0;exitDy=0;entryX=0.5;entryY=0;entryDx=0;entryDy=0;" edge="1" parent="1" source="ptYE-NCWXUwTlRA7IUPt-67" target="ptYE-NCWXUwTlRA7IUPt-80">
          <mxGeometry width="50" height="50" relative="1" as="geometry">
            <mxPoint x="280" y="630" as="sourcePoint" />
            <mxPoint x="280" y="680" as="targetPoint" />
          </mxGeometry>
        </mxCell>
        <mxCell id="ptYE-NCWXUwTlRA7IUPt-108" value="" style="endArrow=classic;html=1;rounded=0;strokeColor=light-dark(#000000,#000000);exitX=0.25;exitY=1;exitDx=0;exitDy=0;entryX=0.5;entryY=0;entryDx=0;entryDy=0;" edge="1" parent="1" source="ptYE-NCWXUwTlRA7IUPt-67" target="ptYE-NCWXUwTlRA7IUPt-70">
          <mxGeometry width="50" height="50" relative="1" as="geometry">
            <mxPoint x="200" y="640" as="sourcePoint" />
            <mxPoint x="200" y="690" as="targetPoint" />
          </mxGeometry>
        </mxCell>
      </root>
    </mxGraphModel>
  </diagram>
</mxfile>
